<svg x="0" y="0" width="249px" height="50px" overflow="inherit" viewBox="0, 0, 249, 50" preserveAspectRatio="xMidYMid" font-size="0" xml="http://www.w3.org/XML/1998/namespace" xmlns="http://www.w3.org/2000/svg" xmlns:xlink="http://www.w3.org/1999/xlink" xmlns:xml="http://www.w3.org/XML/1998/namespace" version="1.1"><title xml:space="default">Альфа банк</title><desc xml:space="default">Created with Sketch.</desc><g id="Page-1" xml:space="default" fill-rule="evenodd" style="fill:none;"><g transform="translate(-1, -25)" id="Artboard" xml:space="default" style="fill:#EF3024;"><g transform="translate(1, 25)" id="Альфа-банк" xml:space="default"><polygon points="237.4,21.3 247.8,9.9 240.1,9.9 231.6,19.4 231.6,9.9 225.5,9.9 225.5,33.9 231.6,33.9 231.6,23.8 240.7,33.9 248.6,33.9" id="Path" xml:space="default" /><polygon points="214.6,18.8 206.2,18.8 206.2,9.9 200,9.9 200,33.9 206.2,33.9 206.2,24.4 214.6,24.4 214.6,33.9 220.8,33.9 220.8,9.9 214.6,9.9" id="Path#1" xml:space="default" /><path d="M36.5 22.9 C36.4 27.4 35.8 28.3 33.3 28.3 L33.3 33.9 L34.2 33.9 C40.5 33.9 42 30.7 42.2 23.5 L42.5 15.5 L48.4 15.5 L48.4 33.9 L54.5 33.9 L54.5 9.9 L37 9.9 L36.5 22.9 z" id="Path#2" xml:space="default" /><path d="M69.8 17.2 L65.4 17.2 L65.4 9.9 L59.3 9.9 L59.3 33.9 L70 33.9 C76.7 33.9 79.1 29.6 79.1 25.5 C78.9 20.1 75.6 17.2 69.8 17.2 z M69.3 28.6 L65.3 28.6 L65.3 22.5 L69.3 22.5 C71.4 22.5 72.7 23.4 72.7 25.4 C72.7 27.6 71.5 28.6 69.3 28.6 z" id="Shape" xml:space="default" /><path d="M98.9 9.3 L98.9 0.4 L92.8 0.4 L92.8 9.3 C85.8 9.9 81 14.9 81 21.8 C81 28.8 85.7 33.8 92.8 34.4 L92.8 43.4 L98.9 43.4 L98.9 34.4 C105.9 33.8 110.7 28.8 110.7 21.8 C110.7 14.9 105.9 9.9 98.9 9.3 z M92.8 28.6 C89.4 28.1 87.3 25.6 87.3 21.8 C87.3 18.1 89.4 15.5 92.8 15 L92.8 28.6 z M98.9 28.6 L98.9 15.1 C102.3 15.6 104.4 18.1 104.4 21.9 C104.5 25.6 102.3 28.2 98.9 28.6 z" id="Shape#1" xml:space="default" /><path d="M133.7 26.5 L133.7 18.4 C133.7 12.5 130 8.8 123.6 8.8 C117.1 8.8 113.6 12.7 113.3 16.8 L119.5 16.8 C119.7 15.9 120.7 14.4 123.5 14.4 C125.9 14.4 127.4 15.5 127.4 18.4 L121.3 18.4 C115.8 18.4 112.6 21.3 112.6 26 C112.6 31 116.1 34.4 121.2 34.4 C124.9 34.4 127 32.6 127.9 31.3 C128.7 32.9 130.5 33.8 132.8 33.8 L134.9 33.8 L134.9 28.3 C134.1 28.3 133.7 27.8 133.7 26.5 z M127.5 24.9 C127.5 27.7 125.5 29.2 123 29.2 C120.8 29.2 119 28.4 119 26 C119 23.7 120.9 23.3 122.6 23.3 L127.5 23.3 L127.5 24.9 z" id="Shape#2" xml:space="default" /><path d="M160 13.3 L153.1 13.3 L153.1 6.5 L169 6.5 L169 0.4 L146.7 0.4 L146.7 33.8 L160 33.8 C167.4 33.8 171.6 30.1 171.6 23.4 C171.6 17.1 167.3 13.3 160 13.3 z M159.7 27.8 L153.1 27.8 L153.1 19.1 L159.7 19.1 C163.1 19.1 165 20.7 165 23.4 C165 26.3 163.1 27.8 159.7 27.8 z" id="Shape#3" xml:space="default" /><path d="M195 26.5 L195 18.4 C195 12.5 191.3 8.8 184.9 8.8 C178.4 8.8 174.9 12.7 174.6 16.8 L180.8 16.8 C181 15.9 182 14.4 184.8 14.4 C187.2 14.4 188.7 15.5 188.7 18.4 L182.6 18.4 C177.1 18.4 173.9 21.3 173.9 26 C173.9 31 177.4 34.4 182.5 34.4 C186.2 34.4 188.3 32.6 189.2 31.3 C190 32.9 191.8 33.8 194.1 33.8 L196.2 33.8 L196.2 28.3 C195.5 28.3 195 27.8 195 26.5 z M188.9 24.9 C188.9 27.7 186.9 29.2 184.4 29.2 C182.2 29.2 180.4 28.4 180.4 26 C180.4 23.7 182.3 23.3 184 23.3 L188.9 23.3 L188.9 24.9 z" id="Shape#4" xml:space="default" /><rect x="0.1" y="43.1" width="32.8" height="6.8" id="Rectangle" xml:space="default" /><path d="M22.5 5 C21.6 2.2 20.5 0 16.8 0 C13.1 0 12 2.2 11 5 C0.8 33.9 0.8 33.9 0.8 33.9 L7.5 33.9 L9.8 27 L22.8 27 L25 33.9 L32.2 33.9 C32.1 33.9 32.1 33.9 22.5 5 z M11.8 21.2 L16.4 7.5 L16.6 7.5 L20.9 21.2 L11.8 21.2 z" id="Shape#5" xml:space="default" /></g></g></g></svg>