<?xml version="1.0" encoding="utf-8"?>
<!-- Generator: Adobe Illustrator 24.0.1, SVG Export Plug-In . SVG Version: 6.00 Build 0)  -->
<svg version="1.1" id="Слой_1" xmlns="http://www.w3.org/2000/svg" xmlns:xlink="http://www.w3.org/1999/xlink" x="0px" y="0px"
	 width="250px" height="40px" viewBox="0 0 250 40" style="enable-background:new 0 0 250 40;" xml:space="preserve">
<style type="text/css">
	.st0{fill:#21A038;}
	.st1{fill:url(#SVGID_1_);}
	.st2{fill:url(#SVGID_2_);}
	.st3{fill:url(#SVGID_3_);}
	.st4{fill:url(#SVGID_4_);}
	.st5{fill:url(#SVGID_5_);}
	.st6{fill:url(#SVGID_6_);}
</style>
<g id="Page-1">
	<g id="SB_RUS_RGB">
		<polygon id="Path" class="st0" points="111.9,12.3 117.1,8.5 99.7,8.5 99.7,31.5 117.1,31.5 117.1,27.7 104.6,27.7 104.6,21.8 
			115.2,21.8 115.2,18 104.6,18 104.6,12.3 		"/>
		<path id="Shape" class="st0" d="M86.5,17.5h-6v-5.1h9.6l5.2-3.8H75.5v23h10.4c5.8,0,9.2-2.6,9.2-7.2C95,19.9,92,17.5,86.5,17.5z
			 M85.7,27.7h-5.2v-6.4h5.2c3.2,0,4.6,1.1,4.6,3.2S88.7,27.7,85.7,27.7z"/>
		<path id="Shape_1_" class="st0" d="M131.1,8.5h-9.5v23h5V25h4.5c6,0,9.8-3.2,9.8-8.2S137.2,8.5,131.1,8.5z M131,21.1h-4.4v-8.8
			h4.4c3.2,0,4.9,1.6,4.9,4.4S134.2,21.1,131,21.1z"/>
		<path id="Path_1_" class="st0" d="M67,26.5c-1.3,0.7-2.8,1.1-4.3,1.1c-4.5,0-7.7-3.2-7.7-7.6s3.2-7.6,7.7-7.6
			c1.6,0,3.2,0.5,4.5,1.4l3.6-2.6l0,0L70.6,11c-2.1-1.8-4.9-2.8-8-2.8c-3.4,0-6.6,1.2-8.8,3.3c-2.3,2.2-3.5,5.2-3.5,8.4
			c0,3.2,1.2,6.3,3.5,8.5c2.4,2.2,5.5,3.5,8.8,3.4c3.6,0,6.7-1.2,8.8-3.5l-3.2-2.4L67,26.5z"/>
		<path id="Shape_2_" class="st0" d="M200.7,8.6v23h5v-9.4h10.6v9.4h5v-23h-5V18h-10.6V8.6H200.7z M192.2,31.5h5.2l-9.7-23h-5
			l-9.9,23h5l2-4.6h10.5L192.2,31.5z M181.3,23.1l3.8-9.2l3.6,9.2H181.3z M232.4,22.2h3.1l7.6,9.2h6.4l-10.2-11.9l8.9-11.1h-5.7
			l-7.4,9.9h-2.7V8.5h-5v23h5V22.2z M156.3,17.5v-5.1h13V8.6h-18v23h10.4c5.8,0,9.2-2.6,9.2-7.2c0-4.4-3-6.8-8.5-6.8H156.3
			L156.3,17.5z M156.3,27.7v-6.4h5.2c3.2,0,4.6,1.1,4.6,3.2s-1.5,3.2-4.6,3.2L156.3,27.7L156.3,27.7z"/>
		<g id="Group">
			<path id="Path_2_" class="st0" d="M34.7,8.4c0.9,1.2,1.7,2.4,2.3,3.8L19.6,25l-7.3-4.6v-5.5l7.3,4.5L34.7,8.4z"/>
			<g id="Path_3_" transform="translate(0.000000, 0.155340)">
				
					<linearGradient id="SVGID_1_" gradientUnits="userSpaceOnUse" x1="1.9478" y1="61.1618" x2="1.4583" y2="63.496" gradientTransform="matrix(3.6097 0 0 -5.965 -1.2582 397.5812)">
					<stop  offset="0.1444" style="stop-color:#F2E913"/>
					<stop  offset="0.3037" style="stop-color:#E7E518"/>
					<stop  offset="0.5823" style="stop-color:#CADB26"/>
					<stop  offset="0.891" style="stop-color:#A3CD39"/>
				</linearGradient>
				<path class="st1" d="M4.9,19.9c0-0.3,0-0.5,0-0.8l-4.4-0.2c0,0.3,0,0.6,0,0.9c0,5.3,2.1,10,5.6,13.5l3.1-3.1
					C6.6,27.6,4.9,23.9,4.9,19.9z"/>
				
					<linearGradient id="SVGID_2_" gradientUnits="userSpaceOnUse" x1="1.263" y1="60.4828" x2="3.3428" y2="60.9601" gradientTransform="matrix(5.9746 0 0 -3.6039 -0.1224 224.014)">
					<stop  offset="5.920000e-02" style="stop-color:#0FA8E0"/>
					<stop  offset="0.5385" style="stop-color:#0099F9"/>
					<stop  offset="0.9234" style="stop-color:#0291EB"/>
				</linearGradient>
				<path class="st2" d="M19.6,5.2c0.3,0,0.5,0,0.8,0l0.2-4.4c-0.3,0-0.6,0-0.9,0c-5.3,0-10.1,2.1-13.5,5.6l3.1,3.1
					C11.9,6.9,15.6,5.2,19.6,5.2z"/>
				
					<linearGradient id="SVGID_3_" gradientUnits="userSpaceOnUse" x1="2.2262" y1="55.7838" x2="4.5781" y2="56.1039" gradientTransform="matrix(5.9746 0 0 -3.6039 5.0432 236.1615)">
					<stop  offset="0.1226" style="stop-color:#A3CD39"/>
					<stop  offset="0.2846" style="stop-color:#86C339"/>
					<stop  offset="0.8693" style="stop-color:#21A038"/>
				</linearGradient>
				<path class="st3" d="M19.6,34.5c-0.3,0-0.5,0-0.8,0l-0.2,4.4c0.3,0,0.6,0,0.9,0c5.3,0,10.1-2.1,13.5-5.6l-3.1-3.1
					C27.3,32.9,23.7,34.5,19.6,34.5z"/>
			</g>
			<g id="Path_4_">
				
					<linearGradient id="SVGID_4_" gradientUnits="userSpaceOnUse" x1="2.5595" y1="59.0117" x2="4.9801" y2="58.5776" gradientTransform="matrix(4.9633 0 0 -2.8893 5.9534 174.3369)">
					<stop  offset="5.660000e-02" style="stop-color:#0291EB"/>
					<stop  offset="0.79" style="stop-color:#0C8ACB"/>
				</linearGradient>
				<path class="st4" d="M27.9,7.9l3.7-2.7c-3.3-2.6-7.5-4.2-12-4.2l0,0v4.4C22.7,5.4,25.5,6.3,27.9,7.9z"/>
				<path class="st0" d="M38.7,20c0-1.2-0.1-2.3-0.3-3.4l-4.1,3c0,0.1,0,0.3,0,0.4c0,4.3-1.9,8.2-4.9,10.9l3,3.3
					C36.3,30.7,38.7,25.6,38.7,20z"/>
				
					<linearGradient id="SVGID_5_" gradientUnits="userSpaceOnUse" x1="1.1873" y1="57.2083" x2="3.4227" y2="56.6636" gradientTransform="matrix(5.8502 0 0 -3.8214 -0.3402 251.9913)">
					<stop  offset="0.1324" style="stop-color:#F2E913"/>
					<stop  offset="0.2977" style="stop-color:#EBE716"/>
					<stop  offset="0.5306" style="stop-color:#D9E01F"/>
					<stop  offset="0.8023" style="stop-color:#BBD62D"/>
					<stop  offset="0.9829" style="stop-color:#A3CD39"/>
				</linearGradient>
				<path class="st5" d="M19.6,34.7c-4.3,0-8.2-1.9-10.9-4.9l-3.3,3c3.5,3.9,8.5,6.3,14.2,6.3V34.7L19.6,34.7z"/>
				
					<linearGradient id="SVGID_6_" gradientUnits="userSpaceOnUse" x1="1.4036" y1="62.2959" x2="1.9925" y2="64.6301" gradientTransform="matrix(3.8275 0 0 -5.8408 -1.3671 384.465)">
					<stop  offset="6.980000e-02" style="stop-color:#A3CD39"/>
					<stop  offset="0.2599" style="stop-color:#81C55F"/>
					<stop  offset="0.9216" style="stop-color:#0FA8E0"/>
				</linearGradient>
				<path class="st6" d="M9.8,9.2l-3-3.3C2.9,9.4,0.5,14.4,0.5,20h4.4C4.9,15.7,6.8,11.8,9.8,9.2z"/>
			</g>
		</g>
	</g>
</g>
</svg>
